<svg xmlns="http://www.w3.org/2000/svg" enable-background="new 0 0 64 64" viewBox="0 0 64 64"><path d="M57.17,41.49H40.3c-0.54,0-0.97-0.43-0.97-0.97s0.43-0.97,0.97-0.97h13.67L32,24.91L10.03,39.55h13.65
			c0.54,0,0.97,0.43,0.97,0.97s-0.43,0.97-0.97,0.97H6.83c-0.43,0-0.8-0.28-0.93-0.69c-0.12-0.41,0.03-0.85,0.39-1.09l25.17-16.77
			c0.33-0.22,0.75-0.22,1.08,0l25.17,16.77c0.36,0.24,0.51,0.68,0.39,1.09C57.98,41.21,57.6,41.49,57.17,41.49z"/><path d="M40.31,64c-0.54,0-0.97-0.43-0.97-0.97V34.85L32,29.96l-7.34,4.89v28.18c0,0.54-0.43,0.97-0.97,0.97
			c-0.54,0-0.97-0.43-0.97-0.97v-28.7c0-0.32,0.16-0.63,0.43-0.81l8.31-5.54c0.33-0.22,0.75-0.22,1.08,0l8.31,5.54
			c0.27,0.18,0.43,0.48,0.43,0.81v28.7C41.28,63.57,40.84,64,40.31,64z"/><path d="M40.31,46.72H23.69c-0.54,0-0.97-0.43-0.97-0.97c0-5.11,4.16-9.28,9.28-9.28c5.12,0,9.28,4.16,9.28,9.28
			C41.28,46.28,40.84,46.72,40.31,46.72z M24.73,44.78h14.55c-0.48-3.59-3.56-6.37-7.27-6.37C28.28,38.41,25.2,41.19,24.73,44.78z"/><path d="M35.33 46.72c-.54 0-.97-.43-.97-.97 0-4.75-1.56-7.34-2.36-7.34s-2.36 2.59-2.36 7.34c0 .54-.43.97-.97.97s-.97-.43-.97-.97c0-4.61 1.48-9.28 4.3-9.28 2.82 0 4.3 4.67 4.3 9.28C36.3 46.28 35.86 46.72 35.33 46.72zM54.18 64c-.54 0-.97-.43-.97-.97v-22.5c0-.54.43-.97.97-.97.54 0 .97.43.97.97v22.5C55.15 63.57 54.71 64 54.18 64zM9.82 64c-.54 0-.97-.43-.97-.97v-22.5c0-.54.43-.97.97-.97.54 0 .97.43.97.97v22.5C10.79 63.57 10.36 64 9.82 64zM47.52 64c-.54 0-.97-.43-.97-.97v-22.5c0-.54.43-.97.97-.97.54 0 .97.43.97.97v22.5C48.49 63.57 48.06 64 47.52 64zM16.48 64c-.54 0-.97-.43-.97-.97v-22.5c0-.54.43-.97.97-.97.54 0 .97.43.97.97v22.5C17.45 63.57 17.01 64 16.48 64zM14.54 36.36c-.54 0-.97-.43-.97-.97v-9.24c0-.54.43-.97.97-.97h13.86c.54 0 .97.43.97.97 0 .54-.43.97-.97.97H15.51v8.27C15.51 35.93 15.07 36.36 14.54 36.36zM49.46 36.35c-.54 0-.97-.43-.97-.97v-8.26H35.62c-.54 0-.97-.43-.97-.97 0-.54.43-.97.97-.97h13.85c.54 0 .97.43.97.97v9.23C50.43 35.92 50 36.35 49.46 36.35z"/><path d="M45.18,27.12c-0.54,0-0.97-0.43-0.97-0.97V21.1H19.79v5.06c0,0.54-0.43,0.97-0.97,0.97c-0.54,0-0.97-0.43-0.97-0.97v-6.03
			c0-0.54,0.43-0.97,0.97-0.97h26.36c0.54,0,0.97,0.43,0.97,0.97v6.03C46.15,26.69,45.71,27.12,45.18,27.12z"/><path d="M43.18,21.09C43.18,21.09,43.18,21.09,43.18,21.09c-0.54,0-0.97-0.43-0.97-0.97l0-12.08C40.75,7.15,36.7,6.53,32,6.5
			c-4.7,0.03-8.75,0.65-10.2,1.55l0,12.08c0,0.54-0.43,0.97-0.97,0.97l0,0c-0.54,0-0.97-0.43-0.97-0.97l0-12.56
			c0-0.27,0.11-0.53,0.31-0.71C22.4,4.78,29.79,4.57,32,4.56c2.22,0.01,9.61,0.22,11.84,2.29c0.2,0.18,0.31,0.44,0.31,0.71l0,12.56
			C44.15,20.66,43.71,21.09,43.18,21.09z"/><path d="M43.18 13.78c-.24 0-.47-.09-.66-.26-1.09-1.01-5.42-1.74-10.52-1.78-5.09.03-9.42.76-10.52 1.78-.39.36-1.01.34-1.37-.05-.36-.39-.34-1.01.05-1.37C22.4 10.03 29.78 9.82 32 9.8c2.22.01 9.61.22 11.84 2.29.39.36.42.98.05 1.37C43.7 13.67 43.44 13.78 43.18 13.78zM23.38 7.41c-.54 0-.97-.43-.97-.97V2.53c0-.27.11-.53.31-.71C24.51.17 30.27.01 32 0c1.74.01 7.51.17 9.28 1.82.2.18.31.44.31.71v3.89c0 .54-.43.97-.97.97-.54 0-.97-.43-.97-.97v-3.4c-1.04-.56-3.8-1.07-7.65-1.09-3.84.02-6.61.54-7.65 1.1v3.4C24.35 6.97 23.91 7.41 23.38 7.41zM35.66 64c-.54 0-.97-.43-.97-.97v-7.6c0-1.48-1.21-2.69-2.69-2.69-1.48 0-2.69 1.21-2.69 2.69v7.6c0 .54-.43.97-.97.97s-.97-.43-.97-.97v-7.6c0-2.55 2.07-4.63 4.63-4.63s4.63 2.07 4.63 4.63v7.6C36.63 63.57 36.19 64 35.66 64zM32 38.41c-.54 0-.97-.43-.97-.97v-8.65c0-.54.43-.97.97-.97.54 0 .97.43.97.97v8.65C32.97 37.98 32.54 38.41 32 38.41zM36.1 39.49c-.54 0-.97-.43-.97-.97v-7c0-.54.43-.97.97-.97.54 0 .97.43.97.97v7C37.07 39.05 36.63 39.49 36.1 39.49zM27.9 39.5c-.54 0-.97-.43-.97-.97v-7c0-.54.43-.97.97-.97.54 0 .97.43.97.97v7C28.87 39.06 28.44 39.5 27.9 39.5z"/><path d="M32 21.1c-.54 0-.97-.43-.97-.97v-9.35c0-.54.43-.97.97-.97.54 0 .97.43.97.97v9.35C32.97 20.66 32.54 21.1 32 21.1zM37.66 21.1c-.54 0-.97-.43-.97-.97v-9c0-.54.43-.97.97-.97s.97.43.97.97v9C38.63 20.66 38.2 21.1 37.66 21.1zM26.34 21.1c-.54 0-.97-.43-.97-.97v-9c0-.54.43-.97.97-.97.54 0 .97.43.97.97v9C27.31 20.66 26.87 21.1 26.34 21.1zM60.99 64H3.01c-.54 0-.97-.43-.97-.97 0-.54.43-.97.97-.97h57.98c.54 0 .97.43.97.97C61.96 63.57 61.52 64 60.99 64z"/></svg>