<svg xmlns="http://www.w3.org/2000/svg" data-name="Layer 1" viewBox="0 0 64 64"><path d="M58.76,8.65a1,1,0,0,0-.05-1.36l-2-2a1,1,0,0,0-1.36-.05l-8,6.79c-.35-.37-.69-.75-1.06-1.11l-.54-.54A21.62,21.62,0,0,0,30.4,4,21.76,21.76,0,0,0,12,14.08,51.27,51.27,0,0,0,4,41.7a18.3,18.3,0,0,0,34.67,8.18,4.19,4.19,0,0,1,6.71-1.08l.84.84A8.07,8.07,0,0,0,60,43.93a46.38,46.38,0,0,0-8.47-26.8ZM55.95,7.36l.69.69L34.94,33.53l-4.47-4.47ZM58,43.93a6.07,6.07,0,0,1-10.36,4.29l-.84-.84A6.19,6.19,0,0,0,36.88,49,16.3,16.3,0,0,1,6,41.68a49.26,49.26,0,0,1,7.72-26.52,19.76,19.76,0,0,1,30.65-3.37l.54.54c.32.32.63.66.95,1L28.35,28.24a1,1,0,0,0-.06,1.47l6,6A1,1,0,0,0,35,36h0a1,1,0,0,0,.72-.35L50.19,18.71A44.38,44.38,0,0,1,58,43.93Z"/><path d="M32 14a3 3 0 1 0-3-3A3 3 0 0 0 32 14zm0-4a1 1 0 1 1-1 1A1 1 0 0 1 32 10zM24 20a4 4 0 1 0-4-4A4 4 0 0 0 24 20zm0-6a2 2 0 1 1-2 2A2 2 0 0 1 24 14zM17 30a5 5 0 1 0-5-5A5 5 0 0 0 17 30zm0-8a3 3 0 1 1-3 3A3 3 0 0 1 17 22zM26.14 33a5.78 5.78 0 0 0-5.95 1.4l-.37.37a3.16 3.16 0 0 0 0 4.47 1.16 1.16 0 0 1-.45 1.92l-5.68 1.89a1 1 0 0 0 0 1.9l5.16 1.72a10.71 10.71 0 0 0 8.23-.58A7.1 7.1 0 0 0 26.14 33zm0 11.3a8.72 8.72 0 0 1-6.7.48L17.16 44 20 43.05a3.16 3.16 0 0 0 1.24-5.23 1.16 1.16 0 0 1 0-1.64l.37-.37a3.79 3.79 0 0 1 3.9-.92 5.1 5.1 0 0 1 .67 9.41z"/></svg>