<svg xmlns="http://www.w3.org/2000/svg" viewBox="0 0 64 64"><path d="M46,43.94v3H44v-2H40.48a1,1,0,0,1-.95-.66,6.71,6.71,0,0,0-.32-.78,1,1,0,0,1,.2-1.14l2.49-2.49L39.07,37l-2.49,2.5a1,1,0,0,1-1.14.19,7.35,7.35,0,0,0-.77-.32,1,1,0,0,1-.67-.94V34.94H30v3.53a1,1,0,0,1-.67.94,7.35,7.35,0,0,0-.77.32,1,1,0,0,1-1.14-.19L24.93,37,22.1,39.87l2.49,2.49a1,1,0,0,1,.2,1.14,6.71,6.71,0,0,0-.32.78,1,1,0,0,1-.95.66H20V47H18V43.94a1,1,0,0,1,1-1h3.34L20,40.58a1,1,0,0,1,0-1.41l4.24-4.25a1,1,0,0,1,1.42,0L28,37.29V33.94a1,1,0,0,1,1-1h6a1,1,0,0,1,1,1v3.35l2.36-2.37a1,1,0,0,1,.71-.29,1,1,0,0,1,.71.29L44,39.17a1,1,0,0,1,0,1.41l-2.36,2.36H45A1,1,0,0,1,46,43.94Zm-14-3a6,6,0,0,0-6,6h2a4,4,0,0,1,8,0h2A6,6,0,0,0,32,40.94ZM60,44a3,3,0,0,1-3,3H49.58A5.07,5.07,0,0,1,47,49.58V57a3,3,0,0,1-6,0V50H39v5a3,3,0,0,1-6,0V50H31v5a3,3,0,0,1-6,0V50H23v7a3,3,0,0,1-6,0V49.58A5.07,5.07,0,0,1,14.42,47H7a3,3,0,0,1,0-6h7V39H9a3,3,0,0,1,0-6h5V31H9a3,3,0,0,1,0-6h5V23H7a3,3,0,0,1,0-6h7.42A5.07,5.07,0,0,1,17,14.42V7a3,3,0,0,1,6,0v7h2V9a3,3,0,0,1,6,0v5h2V9a3,3,0,0,1,6,0v5h2V7a3,3,0,0,1,6,0v7.42A5.07,5.07,0,0,1,49.58,17H57a3,3,0,0,1,0,6H50v2h5a3,3,0,0,1,0,6H50v2h5a3,3,0,0,1,0,6H50v2h7A3,3,0,0,1,60,44ZM50,35v2h5a1,1,0,0,0,0-2Zm0-8v2h5a1,1,0,0,0,0-2Zm0-8v2h7a1,1,0,0,0,0-2Zm-7-5h2V7a1,1,0,0,0-2,0Zm-8,0h2V9a1,1,0,0,0-2,0Zm-8,0h2V9a1,1,0,0,0-2,0Zm-8,0h2V7a1,1,0,0,0-2,0Zm-5,7V19H7a1,1,0,0,0,0,2Zm0,8V27H9a1,1,0,0,0,0,2Zm0,8V35H9a1,1,0,0,0,0,2Zm0,8V43H7a1,1,0,0,0,0,2Zm7,5H19v7a1,1,0,0,0,2,0Zm8,0H27v5a1,1,0,0,0,2,0Zm8,0H35v5a1,1,0,0,0,2,0Zm8,0H43v7a1,1,0,0,0,2,0Zm3-5V19a3,3,0,0,0-3-3H19a3,3,0,0,0-3,3V45a3,3,0,0,0,3,3H45A3,3,0,0,0,48,45Zm10-1a1,1,0,0,0-1-1H50v2h7A1,1,0,0,0,58,44ZM21,22a1,1,0,0,1,1-1H42a1,1,0,0,1,1,1V36h2V22a3,3,0,0,0-3-3H22a3,3,0,0,0-3,3V36h2Z" data-name="39 Cpu, Construction, Engineering"/></svg>